<?xml version="1.0" encoding="utf-8"?>
<!-- Generator: Adobe Illustrator 25.0.1, SVG Export Plug-In . SVG Version: 6.00 Build 0)  -->
<svg version="1.0" id="Layer_1" xmlns="http://www.w3.org/2000/svg" xmlns:xlink="http://www.w3.org/1999/xlink" x="0px" y="0px"
	 viewBox="0 0 832 505" style="enable-background:new 0 0 832 505;" xml:space="preserve">
<style type="text/css">
	.st0{fill:#004BEF;}
	.st1{fill:none;}
</style>
<path d="M785.5,232.3h-18.8v72.9h18.8V232.3z"/>
<path d="M785.5,197.4h-18.8v19.8h18.8V197.4z"/>
<path d="M747.2,198.4v17.1h-48v29.8h41v17.1h-41v42.8h-19.5V198.4H747.2z"/>
<path d="M627.2,261l34.8,44.2h-22.8L614.6,274l-7.5,7.8v23.6h-18.8V198h18.8v60.2l28.4-29.8h22.8L627.2,261z"/>
<path d="M565.8,284.4l5.5,15.8c-8.3,4.9-17.9,7.4-27.6,7.4c-12.6-0.1-22.3-3.8-29-11.2c-6.7-7.4-10-17.7-10-30.8s3.4-23,10-30.4
	s16.4-11,29-11c3.9,0,7.8,0.2,11.6,0.8c3.4,0.6,6.8,1.6,10,3v17.7c-6.1-3.1-12.9-4.7-19.8-4.5c-14.3,0.1-21.3,8.2-21.3,24.3
	c0,16.7,6.9,25,20.9,25C551.9,290.5,558.7,288.5,565.8,284.4z"/>
<path d="M484.8,244.6c3.1,6.6,4.6,13.9,4.5,21.2c0.1,7.4-1.5,14.7-4.5,21.3c-2.9,6.2-7.7,11.5-13.6,15c-6.1,3.7-13.4,5.5-21.9,5.5
	c-8.8,0-16.1-1.8-22.2-5.5c-6-3.5-10.7-8.8-13.7-15c-3.1-6.7-4.7-14-4.5-21.3c-0.1-7.3,1.5-14.5,4.5-21.2c3-6.2,7.8-11.5,13.7-15
	c6.1-3.7,13.4-5.5,22.2-5.5s16,1.8,21.9,5.5C477.1,233.1,481.8,238.4,484.8,244.6z M470,265.8c0-7.8-1.8-14-5.4-18.5
	s-8.6-6.8-15.3-6.8s-11.9,2.3-15.5,6.8s-5.4,10.6-5.4,18.5s1.8,14,5.4,18.5s8.8,6.8,15.5,6.8s11.7-2.3,15.3-6.8S470,273.5,470,265.8
	z"/>
<path d="M396.6,289.2v16.4c-3.9,1-8,1.5-12,1.6c-7.8-0.1-13.4-1.7-17-5s-5.4-8.2-5.4-15v-89.4H381V281c0,3.4,0.6,5.8,1.7,7.1
	s3.1,2,6.1,2C391.4,290.1,394,289.9,396.6,289.2z"/>
<path d="M335.6,260.3c3.4,4.2,4.9,9.3,4.9,15.5c0,9.9-3.1,17.2-9.2,22.2s-16.4,7.2-30.8,7.2h-40.7V198.4h40.7
	c13,0,22.2,2.4,27.7,7.2s8.2,11.9,8.2,21.5c0,5.8-1.1,10.6-3.5,14.6s-6.2,7.1-11.3,9.3C327,252.6,331.9,255.9,335.6,260.3z
	 M316.2,285.9c3.1-2.4,4.5-6.2,4.5-11.5s-1.7-8.9-5.1-11.3s-8.5-3.5-15.1-3.5h-21.2v29.8h21.2C307.9,289.4,313.1,288.2,316.2,285.9z
	 M316.5,228.6c0-5.2-1.3-8.9-3.7-11.2s-6.5-3.4-12.3-3.4h-21.2v29.7h21.2C311.1,243.7,316.5,238.6,316.5,228.6z"/>
<path class="st0" d="M200.3,228.5c13.2,13.2,13.3,34.5,0.1,47.8c0,0-0.1,0.1-0.1,0.1l-47.9,48c-13.2,13.2-34.5,13.3-47.8,0.1
	c0,0-0.1-0.1-0.1-0.1l-48.1-47.9c-13.2-13.2-13.3-34.5-0.1-47.8c0,0,0.1-0.1,0.1-0.1l47.9-48c13.3-13.3,34.7-13.3,48,0c0,0,0,0,0,0
	L200.3,228.5z M164.4,264.5c6.6-6.6,6.6-17.4,0-24l-24-24c-6.6-6.6-17.4-6.6-24,0l-24,24c-6.6,6.6-6.6,17.4,0,24l24,24
	c6.6,6.6,17.4,6.6,24,0L164.4,264.5z"/>
<rect x="22" y="149" class="st1" width="788" height="207"/>
</svg>
