<svg width="105" height="24" viewBox="0 0 105 24" fill="none" xmlns="http://www.w3.org/2000/svg">
<path d="M7.57884 17.3772H13.3505V20.716H3.16797V2.96297H7.57531V17.3736L7.57884 17.3772Z" fill="#040449"/>
<path d="M15.4177 9.82114C15.9691 8.72439 16.7289 7.88096 17.6938 7.29093C18.6587 6.7009 19.7297 6.40936 20.91 6.40936C21.928 6.40936 22.8151 6.61067 23.5856 7.01674C24.3455 7.41936 24.9287 7.95387 25.3387 8.60637V6.61067H29.746V20.7194H25.3387V18.7203C24.9145 19.3797 24.3209 19.9107 23.5503 20.3167C22.7904 20.7194 21.9033 20.9241 20.8854 20.9241C19.7155 20.9241 18.6552 20.6256 17.6903 20.0252C16.7254 19.4283 15.9691 18.5779 15.4141 17.4742C14.8522 16.3671 14.5801 15.0932 14.5801 13.6459C14.5801 12.1986 14.8522 10.9214 15.4141 9.82807L15.4177 9.82114ZM24.4304 11.1088C23.8224 10.4875 23.0767 10.1717 22.2002 10.1717C21.3237 10.1717 20.5849 10.4806 19.9806 11.0984C19.362 11.7093 19.0617 12.5596 19.0617 13.639C19.0617 14.7184 19.3656 15.5687 19.9806 16.204C20.5885 16.8356 21.3237 17.155 22.2002 17.155C23.0767 17.155 23.826 16.8425 24.4304 16.2178C25.0382 15.5896 25.3387 14.7392 25.3387 13.6598C25.3387 12.5804 25.0347 11.7301 24.4304 11.1088Z" fill="#040449"/>
<path d="M45.7249 8.06103C46.7322 9.13004 47.2305 10.6016 47.2305 12.4759V20.719H42.855V13.0555C42.855 12.1149 42.6076 11.3791 42.1092 10.8585C41.6109 10.3309 40.9394 10.0706 40.0945 10.0706C39.2499 10.0706 38.5889 10.3309 38.0906 10.8585C37.5924 11.3791 37.3448 12.1149 37.3448 13.0555V20.719H32.9375V6.61025H37.3448V8.481C37.7901 7.85279 38.3946 7.3634 39.1438 6.99897C39.9037 6.63801 40.7591 6.45753 41.6993 6.45753C43.3781 6.45753 44.721 6.99551 45.7283 8.06451L45.7249 8.06103Z" fill="#040449"/>
<path d="M58.3102 17.0542V20.7194H56.0694C54.4789 20.7194 53.2313 20.3376 52.3336 19.5707C51.4464 18.8002 51.0011 17.5507 51.0011 15.8153V10.1995H49.248V6.61071H51.0011V3.17116H55.3979V6.61071H58.2783V10.1995H55.3979V15.8639C55.3979 16.2839 55.5075 16.5858 55.7125 16.7732C55.9175 16.9606 56.2532 17.0542 56.7409 17.0542H58.3102Z" fill="#040449"/>
<path d="M74.2183 14.6975H64.2549C64.3185 15.5757 64.6119 16.2455 65.1102 16.7071C65.6192 17.1757 66.2483 17.4047 66.9834 17.4047C68.0792 17.4047 68.846 16.9465 69.2702 16.0372H73.9602C73.7235 16.9674 73.2887 17.8038 72.6596 18.5431C72.0305 19.2893 71.253 19.869 70.2986 20.2889C69.355 20.7089 68.3053 20.9206 67.1354 20.9206C65.7287 20.9206 64.4705 20.629 63.3784 20.0391C62.2722 19.449 61.4168 18.6021 60.8019 17.5089C60.1833 16.4121 59.8828 15.1314 59.8828 13.6632C59.8828 12.1951 60.1868 10.9178 60.7912 9.82454C61.3991 8.72777 62.2545 7.88436 63.3572 7.29432C64.4529 6.70429 65.7074 6.41275 67.139 6.41275C68.5704 6.41275 69.772 6.70082 70.8429 7.27002C71.9245 7.84271 72.7691 8.66182 73.3877 9.72736C73.9957 10.7859 74.296 12.025 74.296 13.4446C74.296 13.8472 74.2749 14.2672 74.2218 14.7045L74.2183 14.6975ZM69.7898 12.2992C69.7898 11.553 69.5282 10.9629 69.0192 10.5291C68.4996 10.0883 67.8599 9.86967 67.0788 9.86967C66.3436 9.86967 65.7253 10.0814 65.2162 10.5013C64.7074 10.9213 64.3927 11.5218 64.2726 12.2992H69.7862H69.7898Z" fill="#040449"/>
<path d="M82.9504 7.124C83.7314 6.67627 84.5868 6.45413 85.527 6.45413V11.0321H84.3146C83.2189 11.0321 82.399 11.2612 81.8441 11.7297C81.2927 12.1913 81.0206 13.007 81.0206 14.1662V20.7191H76.6133V6.61033H81.0206V8.96003C81.5401 8.18258 82.1799 7.57173 82.9468 7.124H82.9504Z" fill="#040449"/>
<path d="M100.42 8.06103C101.427 9.13004 101.926 10.6016 101.926 12.4759V20.719H97.5502V13.0555C97.5502 12.1149 97.3029 11.3791 96.8045 10.8585C96.3062 10.3309 95.6345 10.0706 94.7899 10.0706C93.9452 10.0706 93.2843 10.3309 92.786 10.8585C92.2877 11.3791 92.0401 12.1149 92.0401 13.0555V20.719H87.6328V6.61025H92.0401V8.481C92.4854 7.85279 93.0899 7.3634 93.8391 6.99897C94.599 6.63801 95.4544 6.45753 96.3946 6.45753C98.0734 6.45753 99.4163 6.99551 100.424 8.06451L100.42 8.06103Z" fill="#040449"/>
</svg>
